<?xml version="1.0" encoding="utf-8"?>
<!-- Generator: Adobe Illustrator 22.1.0, SVG Export Plug-In . SVG Version: 6.00 Build 0)  -->
<svg version="1.1" id="Layer_1" xmlns="http://www.w3.org/2000/svg" xmlns:xlink="http://www.w3.org/1999/xlink" x="0px" y="0px"
	 viewBox="0 0 148.4 146.6" style="enable-background:new 0 0 148.4 146.6;" xml:space="preserve">
<style type="text/css">
	.st0{fill:#517956;}
	.st1{fill:#D4EBB7;}
</style>
<path class="st0" d="M79.4,119.3c0-17.9,15.8-14.7,22.1-8.4s38.9,11.6,38.9-34.7S78.3,13,50.9,21.5s-51.6,75.8-9.5,97.9
	S79.4,119.3,79.4,119.3z"/>
<circle class="st1" cx="119.7" cy="93.3" r="7.6"/>
<circle class="st1" cx="110.6" cy="56.2" r="9.1"/>
<circle class="st1" cx="77.4" cy="41.7" r="9.8"/>
<circle class="st1" cx="45.2" cy="46.1" r="10.6"/>
<circle class="st1" cx="35.6" cy="76.1" r="9.5"/>
<circle class="st1" cx="52.8" cy="100.9" r="7.6"/>
<path class="st1" d="M95.2,93.3c0,0,8.3-26.6-8-31.8c-16.3-5.3-32.1-1.7-26.8,12.8C65.7,88.8,70.7,100.9,95.2,93.3z"/>
<path class="st0" d="M123.3,128.8l-5.2,4.6c-1,0.9-2.6,0.8-3.4-0.2l-88.3-99c-0.9-1-0.8-2.6,0.2-3.4l5.2-4.6c1-0.9,2.6-0.8,3.4,0.2
	l88.3,99C124.4,126.4,124.3,127.9,123.3,128.8z"/>
<path class="st0" d="M13.2,10.3c0,0,1.9,27.2,14.1,17C40.8,16,13.2,10.3,13.2,10.3z"/>
</svg>
