<?xml version="1.0" encoding="utf-8"?>
<!-- Generator: Adobe Illustrator 22.1.0, SVG Export Plug-In . SVG Version: 6.00 Build 0)  -->
<svg version="1.1" id="Layer_1" xmlns="http://www.w3.org/2000/svg" xmlns:xlink="http://www.w3.org/1999/xlink" x="0px" y="0px"
	 viewBox="0 0 316.8 319.7" style="enable-background:new 0 0 316.8 319.7;" xml:space="preserve">
<style type="text/css">
	.st0{fill:#517955;}
</style>
<rect x="26.4" y="16.6" class="st0" width="6.1" height="279"/>
<rect x="26.4" y="289.6" class="st0" width="279" height="6.1"/>
<rect x="15" y="13.5" class="st0" width="17.5" height="3.2"/>
<rect x="44" y="54.3" class="st0" width="54.6" height="237.3"/>
<rect x="106.8" y="122.3" class="st0" width="54.6" height="169.3"/>
<rect x="170.3" y="99.9" class="st0" width="54.6" height="191.6"/>
<rect x="233.9" y="80" class="st0" width="54.6" height="209.5"/>
<rect x="15" y="26.4" class="st0" width="17.5" height="3.2"/>
<rect x="15" y="41.3" class="st0" width="17.5" height="3.2"/>
<rect x="15" y="56.2" class="st0" width="17.5" height="3.2"/>
<rect x="15" y="71.1" class="st0" width="17.5" height="3.2"/>
<rect x="15" y="86.1" class="st0" width="17.5" height="3.2"/>
<rect x="15" y="101" class="st0" width="17.5" height="3.2"/>
<rect x="15" y="115.9" class="st0" width="17.5" height="3.2"/>
<rect x="15" y="130.8" class="st0" width="17.5" height="3.2"/>
<rect x="15" y="145.7" class="st0" width="17.5" height="3.2"/>
<rect x="15" y="160.7" class="st0" width="17.5" height="3.2"/>
<rect x="15" y="175.6" class="st0" width="17.5" height="3.2"/>
<rect x="15" y="190.5" class="st0" width="17.5" height="3.2"/>
<rect x="15" y="205.4" class="st0" width="17.5" height="3.2"/>
<rect x="15" y="220.3" class="st0" width="17.5" height="3.2"/>
<rect x="15" y="235.3" class="st0" width="17.5" height="3.2"/>
<rect x="15" y="250.2" class="st0" width="17.5" height="3.2"/>
<rect x="15" y="265.1" class="st0" width="17.5" height="3.2"/>
<rect x="15" y="280" class="st0" width="17.5" height="3.2"/>
<rect x="15" y="292.6" class="st0" width="17.5" height="3"/>
<rect x="26.8" y="289.6" class="st0" width="3.2" height="17.5"/>
<rect x="38.7" y="289.5" class="st0" width="3.2" height="17.5"/>
<rect x="53.6" y="289.6" class="st0" width="3.2" height="17.5"/>
<rect x="68.6" y="289.6" class="st0" width="3.2" height="17.5"/>
<rect x="83.5" y="289.6" class="st0" width="3.2" height="17.5"/>
<rect x="98.4" y="289.6" class="st0" width="3.2" height="17.5"/>
<rect x="113.3" y="289.5" class="st0" width="3.2" height="17.5"/>
<rect x="128.2" y="289.6" class="st0" width="3.2" height="17.5"/>
<rect x="143.2" y="289.6" class="st0" width="3.2" height="17.5"/>
<rect x="158.1" y="289.6" class="st0" width="3.2" height="17.5"/>
<rect x="173" y="289.6" class="st0" width="3.2" height="17.5"/>
<rect x="187.9" y="289.5" class="st0" width="3.2" height="17.5"/>
<rect x="202.8" y="289.6" class="st0" width="3.2" height="17.5"/>
<rect x="217.8" y="289.6" class="st0" width="3.2" height="17.5"/>
<rect x="232.7" y="289.6" class="st0" width="3.2" height="17.5"/>
<rect x="247.6" y="289.6" class="st0" width="3.2" height="17.5"/>
<rect x="262.5" y="289.5" class="st0" width="3.2" height="17.5"/>
<rect x="277.4" y="289.6" class="st0" width="3.2" height="17.5"/>
<rect x="292.4" y="289.6" class="st0" width="3.2" height="17.5"/>
<rect x="305" y="289.6" class="st0" width="3" height="17.5"/>
</svg>
