<?xml version="1.0" encoding="utf-8"?>
<!-- Generator: Adobe Illustrator 22.1.0, SVG Export Plug-In . SVG Version: 6.00 Build 0)  -->
<svg version="1.1" id="Layer_1" xmlns="http://www.w3.org/2000/svg" xmlns:xlink="http://www.w3.org/1999/xlink" x="0px" y="0px"
	 viewBox="0 0 153.1 111.1" style="enable-background:new 0 0 153.1 111.1;" xml:space="preserve">
<style type="text/css">
	.st0{fill:#517955;}
	.st1{fill:#D4EBB7;stroke:#517955;stroke-width:5;stroke-miterlimit:10;}
	.st2{fill:none;stroke:#517955;stroke-width:5;stroke-miterlimit:10;}
</style>
<rect x="-1.7" y="40.7" transform="matrix(0.7071 -0.7071 0.7071 0.7071 -23.2824 44.0005)" class="st0" width="86.3" height="18.9"/>
<rect x="71.4" y="10.6" transform="matrix(0.7071 -0.7071 0.7071 0.7071 -5.4112 69.1857)" class="st0" width="18.9" height="61"/>
<rect x="80.5" y="34.1" transform="matrix(0.7071 -0.7071 0.7071 0.7071 0.6454 88.7235)" class="st0" width="53.8" height="18.9"/>
<polygon class="st0" points="106.7,5.5 145.5,5.5 145.5,44.3 "/>
<path class="st0" d="M140,104.9l-32.9-29.5c-0.8-0.7-0.9-2-0.2-2.8l3.2-3.5c0.7-0.8,2-0.9,2.8-0.2l32.9,29.5c0.8,0.7,0.9,2,0.2,2.8
	l-3.2,3.5C142.1,105.6,140.8,105.6,140,104.9z"/>
<circle class="st1" cx="104.6" cy="65.8" r="21.4"/>
<line class="st2" x1="84.7" y1="54.9" x2="96.6" y2="66.5"/>
<line class="st2" x1="93.6" y1="66.7" x2="125.1" y2="35.9"/>
</svg>
