<?xml version="1.0" encoding="utf-8"?>
<!-- Generator: Adobe Illustrator 22.1.0, SVG Export Plug-In . SVG Version: 6.00 Build 0)  -->
<svg version="1.1" id="Layer_1" xmlns="http://www.w3.org/2000/svg" xmlns:xlink="http://www.w3.org/1999/xlink" x="0px" y="0px"
	 viewBox="0 0 118.4 125" style="enable-background:new 0 0 118.4 125;" xml:space="preserve">
<style type="text/css">
	.st0{fill:#517955;}
</style>
<circle class="st0" cx="28.1" cy="43" r="15.3"/>
<circle class="st0" cx="60.6" cy="28.5" r="15.3"/>
<circle class="st0" cx="93.2" cy="43" r="15.3"/>
<path class="st0" d="M39.2,106.8H16.1c-1.2,0-2.2-1-2.2-2.2V60.4c0-1.2,1-2.2,2.2-2.2h23.1c1.2,0,2.2,1,2.2,2.2v44.2
	C41.4,105.8,40.4,106.8,39.2,106.8z"/>
<path class="st0" d="M71.9,106.8H49.4c-1.4,0-2.5-1.1-2.5-2.5v-58c0-1.4,1.1-2.5,2.5-2.5h22.5c1.4,0,2.5,1.1,2.5,2.5v58
	C74.4,105.7,73.3,106.8,71.9,106.8z"/>
<path class="st0" d="M104.8,106.8H81.7c-1.2,0-2.2-1-2.2-2.2V60.4c0-1.2,1-2.2,2.2-2.2h23.1c1.2,0,2.2,1,2.2,2.2v44.2
	C107,105.8,106,106.8,104.8,106.8z"/>
</svg>
