<?xml version="1.0" encoding="utf-8"?>
<!-- Generator: Adobe Illustrator 22.1.0, SVG Export Plug-In . SVG Version: 6.00 Build 0)  -->
<svg version="1.1" id="Layer_1" xmlns="http://www.w3.org/2000/svg" xmlns:xlink="http://www.w3.org/1999/xlink" x="0px" y="0px"
	 viewBox="0 0 448 512" style="enable-background:new 0 0 448 512;" xml:space="preserve">
<style type="text/css">
	.st0{fill:#F5F2ED;}
</style>
<path class="st0" d="M400,32H48C21.5,32,0,53.5,0,80v352c0,26.5,21.5,48,48,48h352c26.5,0,48-21.5,48-48V80
	C448,53.5,426.5,32,400,32z M317.7,396.2c-8.5,9.1-31.2,19.8-60.9,19.8c-75.5,0-91.9-55.5-91.9-87.9v-90h-29.7
	c-3.4,0-6.2-2.8-6.2-6.2v-42.5c0-4.5,2.8-8.5,7.1-10c38.8-13.7,50.9-47.5,52.7-73.2c0.5-6.9,4.1-10.2,10-10.2h44.3
	c3.4,0,6.2,2.8,6.2,6.2v72h51.9c3.4,0,6.2,2.8,6.2,6.2v51.1c0,3.4-2.8,6.2-6.2,6.2h-52.1V321c0,21.4,14.8,33.5,42.5,22.4
	c3-1.2,5.6-2,8-1.4c2.2,0.5,3.6,2.1,4.6,4.9l13.8,40.2C319,390.3,320,393.8,317.7,396.2L317.7,396.2z"/>
</svg>
